<?xml version="1.0" encoding="utf-8"?><svg version="1.1" id="Layer_1" xmlns="http://www.w3.org/2000/svg" xmlns:xlink="http://www.w3.org/1999/xlink" x="0px" y="0px" viewBox="0 0 122.88 46.07" style="enable-background:new 0 0 122.88 46.07" xml:space="preserve"><style type="text/css"><![CDATA[
	.st0{fill:#FFFFFF;}
	.st1{fill:#003478;}
]]></style><g><path class="st1" d="M61.44,0C27.33,0,0,10.23,0,23.04c0,12.73,27.57,23.04,61.44,23.04c33.87,0,61.44-10.34,61.44-23.04 S95.31,0,61.44,0L61.44,0z"/><path class="st0" d="M97.54,16.43c0.08-0.14,0-0.24-0.18-0.24c-0.93,0-2.15,0-3.09,0c-0.24,0-0.36,0.02-0.45,0.24 c-0.36,0.69-4.69,7.19-5.5,8.45c-0.14,0.2-0.29,0.16-0.32-0.06c-0.08-0.75-0.73-1.62-1.75-2.03c-0.77-0.32-1.54-0.38-2.33-0.28 c-1.42,0.2-2.7,0.95-3.82,1.79c-1.7,1.28-3.13,2.94-5.03,4.18c-1.02,0.67-2.42,1.24-3.37,0.37c-0.85-0.79-0.75-2.54,0.55-3.9 c0.14-0.14,0.29-0.02,0.28,0.1c-0.12,0.61,0.04,1.22,0.49,1.64c0.57,0.51,1.38,0.57,2.07,0.24c0.83-0.41,1.3-1.18,1.44-2.09 c0.22-1.38-0.85-2.6-2.17-2.7c-1.08-0.08-2.11,0.29-3.13,1.14c-0.51,0.41-0.79,0.73-1.24,1.36c-0.1,0.16-0.28,0.18-0.26-0.06 c0.06-1.77-0.69-2.76-2.15-2.8c-1.13-0.02-2.35,0.59-3.29,1.34c-1.04,0.83-1.93,1.93-2.92,2.97c-0.12,0.12-0.22,0.12-0.26-0.12 c-0.04-1.16-0.32-2.31-0.87-3.11c-0.2-0.28-0.59-0.41-0.93-0.24c-0.16,0.08-0.71,0.33-1.1,0.65c-0.2,0.16-0.28,0.39-0.2,0.69 c0.53,1.75,0.41,3.74-0.3,5.42c-0.65,1.54-1.91,2.94-3.41,3.39c-0.98,0.31-2.01,0.16-2.64-0.71c-0.87-1.2-0.51-3.29,0.77-5.02 c1.14-1.52,2.8-2.5,4.43-3.11c0.2-0.08,0.24-0.2,0.18-0.36c-0.08-0.28-0.24-0.63-0.3-0.81c-0.16-0.39-0.57-0.47-1.08-0.41 c-1.2,0.14-2.27,0.55-3.33,1.12c-2.78,1.5-4.18,4.37-4.81,5.93c-0.3,0.75-0.55,1.2-0.87,1.62c-0.43,0.55-0.98,1.06-2.01,1.93 c-0.1,0.08-0.16,0.26-0.08,0.41c0.1,0.22,0.63,0.95,0.77,1.02c0.16,0.08,0.35-0.04,0.43-0.08c0.71-0.47,1.56-1.24,1.97-1.75 c0.14-0.18,0.3-0.1,0.37,0.16c0.39,1.38,1.4,2.5,2.8,2.98c2.56,0.87,5.22-0.39,7.21-2.56c1.28-1.38,1.73-2.27,2.23-2.88 c0.83-1.02,2.46-3.31,4.39-4.79c0.71-0.55,1.56-0.96,1.97-0.69c0.33,0.22,0.45,0.73-0.1,1.73c-1.97,3.61-4.89,7.86-5.42,8.89 c-0.1,0.18-0.02,0.32,0.18,0.32c1.05,0,2.07,0,2.99,0c0.16,0,0.24-0.08,0.32-0.2c1.52-2.38,2.96-4.65,4.47-6.98 c0.08-0.14,0.16-0.04,0.16,0.02c0.04,0.55,0.16,1.28,0.49,1.77c0.57,0.91,1.4,1.28,2.3,1.3c0.73,0,1.08-0.1,1.87-0.39 c0.63-0.24,1.14-0.55,1.54-0.83c0.24-0.16,0.28,0.1,0.26,0.14c-0.36,1.89,0.08,4.12,1.95,5.06c2.25,1.1,4.71-0.45,6.13-1.85 c0.14-0.14,0.29-0.12,0.29,0.18c0.04,0.53,0.28,1.18,0.71,1.62c1.18,1.2,3.59,0.73,5.99-1.14c1.54-1.2,3.17-2.88,4.63-4.67 c0.06-0.06,0.1-0.18,0-0.3c-0.22-0.24-0.55-0.49-0.77-0.71c-0.1-0.08-0.24-0.06-0.33,0c-1.5,1.42-2.86,3.05-4.79,4.39 c-0.65,0.45-1.71,0.83-2.17,0.2c-0.18-0.24-0.16-0.59,0.02-1.04C88.06,30.94,97.07,17.24,97.54,16.43L97.54,16.43L97.54,16.43z M85.64,27.92c0.02,0.1,0.16,0.2,0.29,0.26c0.04,0.02,0.08,0.06,0.02,0.16c-0.38,0.83-0.73,1.3-1.22,2.01 c-0.43,0.65-0.95,1.16-1.54,1.67c-0.91,0.75-2.17,1.56-3.21,1.02c-0.45-0.24-0.67-0.89-0.65-1.42c0.02-1.48,0.67-3,1.89-4.47 c1.48-1.81,3.11-2.76,4.18-2.25c1.1,0.53,0.75,1.81,0.26,2.82C85.62,27.78,85.62,27.86,85.64,27.92L85.64,27.92z"/><path class="st0" d="M32.26,35.72c-3.35,0.02-6.31-2.05-6.66-5.63c-0.2-1.99,0.37-3.76,1.5-5.22c1.01-1.3,2.68-2.38,4.12-2.64 c0.47-0.08,1.08-0.04,1.34,0.28c0.41,0.47,0.3,0.99-0.12,1.2c-1.08,0.55-2.4,1.52-3.05,2.82c-0.53,1.06-0.63,2.34,0.18,3.57 c1.34,2.03,5.1,2.09,8.59-1.16c0.87-0.79,1.64-1.56,2.42-2.46c1.54-1.75,2.05-2.4,4.1-5.24c0.02-0.04,0.04-0.08,0.02-0.1 c-0.02-0.04-0.04-0.04-0.1-0.04c-1.36,0.04-2.56,0.43-3.7,1.3c-0.34,0.24-0.81,0.22-1.02-0.12c-0.24-0.36-0.06-0.83,0.32-1.1 c1.85-1.3,3.9-1.54,5.97-1.87c0,0,0.14,0,0.26-0.16c0.85-1.08,1.5-2.09,2.4-3.19c0.91-1.12,2.09-2.15,3-2.94 c1.26-1.08,2.07-1.46,2.9-1.89c0.22-0.12-0.02-0.26-0.1-0.26c-4.59-0.87-9.36-1.97-13.91-0.3c-3.15,1.18-4.53,3.69-3.88,5.36 c0.47,1.18,2.03,1.38,3.49,0.67c1.2-0.59,2.33-1.56,3.13-2.78c0.45-0.69,1.38-0.2,0.89,1c-1.34,3.13-3.88,5.62-6.98,5.71 c-2.64,0.08-4.33-1.85-4.33-4.26c0.02-4.73,5.28-7.84,10.8-8.3c6.66-0.55,12.97,1.22,19.59,2.03c5.06,0.61,9.93,0.63,15.01-0.55 c0.61-0.14,1.03,0.26,0.99,0.87c-0.06,0.89-0.73,1.73-2.4,2.64c-1.91,1.04-3.9,1.36-5.99,1.38c-5.04,0.04-9.73-1.93-14.6-2.98 c0,0.22,0.06,0.47-0.12,0.59c-2.68,1.99-5.12,4-6.76,6.84c-0.06,0.06-0.02,0.12,0.08,0.12c1.42-0.08,2.68-0.12,4-0.22 c0.24-0.02,0.24-0.08,0.22-0.24c-0.12-0.97,0.16-2.09,1.02-2.86c0.89-0.79,1.97-0.89,2.7-0.31c0.83,0.65,0.75,1.81,0.3,2.68 c-0.45,0.89-1.22,1.36-1.95,1.58c0,0-0.16,0.04-0.14,0.18c0.04,0.22,1.02,0.77,1.1,0.93c0.08,0.14,0.04,0.35-0.12,0.51 c-0.1,0.12-0.28,0.24-0.47,0.24c-0.18,0-0.28-0.06-0.49-0.18c-0.45-0.24-1-0.65-1.38-1.1c-0.14-0.16-0.2-0.16-0.51-0.14 c-1.44,0.08-3.67,0.3-5.16,0.49c-0.37,0.04-0.41,0.12-0.49,0.24c-2.4,3.96-4.99,8.26-7.8,11.11C37.44,34.9,34.94,35.71,32.26,35.72 L32.26,35.72L32.26,35.72z M55.19,18.09c0.04,0.2,0.12,0.24,0.22,0.22c0.45-0.1,0.97-0.47,1.26-0.91c0.28-0.39,0.39-0.97,0.14-1.2 c-0.24-0.2-0.63-0.16-0.93,0.1C55.29,16.83,55.12,17.54,55.19,18.09L55.19,18.09z"/><path class="st0" d="M61.44,44.08c-32.51,0-58.88-9.42-58.88-21.03S28.93,2.03,61.44,2.03c32.51,0,58.88,9.42,58.88,21.02 C120.32,34.66,93.95,44.08,61.44,44.08L61.44,44.08L61.44,44.08z M61.44,3.76c-31.37,0-56.81,8.67-56.81,19.27 s25.44,19.27,56.81,19.27c31.37,0,56.81-8.67,56.81-19.27S92.81,3.76,61.44,3.76L61.44,3.76z"/></g></svg>