<svg width="46" height="48" viewBox="0 0 46 48" fill="none" xmlns="http://www.w3.org/2000/svg">
<path fill-rule="evenodd" clip-rule="evenodd" d="M9.92501 1.70498C18.6151 0.741732 27.385 0.741732 36.075 1.70498C40.8225 2.23498 44.65 5.97248 45.2075 10.7375C46.238 19.5491 46.238 28.4508 45.2075 37.2625C44.65 42.0275 40.8225 45.765 36.0775 46.2975C27.3866 47.261 18.6159 47.261 9.92501 46.2975C5.17751 45.765 1.35001 42.0275 0.792511 37.265C-0.238169 28.4525 -0.238169 19.5499 0.792511 10.7375C1.35001 5.97248 5.17751 2.23498 9.92501 1.70498ZM35.5 8.99998C34.837 8.99998 34.2011 9.26337 33.7322 9.73221C33.2634 10.2011 33 10.8369 33 11.5C33 12.163 33.2634 12.7989 33.7322 13.2677C34.2011 13.7366 34.837 14 35.5 14C36.163 14 36.7989 13.7366 37.2678 13.2677C37.7366 12.7989 38 12.163 38 11.5C38 10.8369 37.7366 10.2011 37.2678 9.73221C36.7989 9.26337 36.163 8.99998 35.5 8.99998ZM11.125 24C11.125 20.8505 12.3761 17.8301 14.6031 15.6031C16.8301 13.3761 19.8506 12.125 23 12.125C26.1495 12.125 29.1699 13.3761 31.3969 15.6031C33.6239 17.8301 34.875 20.8505 34.875 24C34.875 27.1494 33.6239 30.1699 31.3969 32.3969C29.1699 34.6239 26.1495 35.875 23 35.875C19.8506 35.875 16.8301 34.6239 14.6031 32.3969C12.3761 30.1699 11.125 27.1494 11.125 24Z" fill="white"/>
</svg>
