<svg width="46" height="46" viewBox="0 0 46 46" fill="none" xmlns="http://www.w3.org/2000/svg">
<path d="M23.425 0.5C20.4701 0.500164 17.5441 1.08234 14.8142 2.21328C12.0843 3.34423 9.60389 5.0018 7.51457 7.09135C5.42525 9.1809 3.76796 11.6615 2.63731 14.3915C1.50667 17.1216 0.924824 20.0476 0.924988 23.0025C0.925152 25.9574 1.50733 28.8833 2.63827 31.6133C3.76922 34.3432 5.42678 36.8236 7.51634 38.9129C9.60589 41.0022 12.0865 42.6595 14.8165 43.7902C17.5466 44.9208 20.4726 45.5027 23.4275 45.5025C29.3952 45.5022 35.1183 43.1312 39.3379 38.9112C43.5575 34.6911 45.9278 28.9677 45.9275 23C45.9272 17.0323 43.5562 11.3091 39.3361 7.08958C35.1161 2.87001 29.3927 0.499669 23.425 0.5ZM27.375 8.925H29.375V15.625C29.375 16.05 29.575 16.05 29.65 16.05C29.95 16.05 30.4 15.725 30.625 15.5V8.9H32.625V17.75H30.625V16.975C30.35 17.225 30.075 17.425 29.8 17.575C29.425 17.775 29.075 17.85 28.725 17.85C28.5334 17.8592 28.3421 17.8258 28.1649 17.7524C27.9877 17.6789 27.8289 17.5671 27.7 17.425C27.475 17.15 27.375 16.725 27.375 16.2V8.925ZM21 11.25C21 9.875 22.125 8.75 23.5 8.75C24.875 8.75 26 9.875 26 11.25V15.5C26 16.875 24.875 18 23.5 18C22.125 18 21 16.875 21 15.5V11.25ZM15.8 5.875L17 10.275L18.225 5.875H20.5L18.15 12.825V17.75H15.925V12.825L13.525 5.875H15.8ZM35.55 37.225C34.275 38.475 23.475 38.5 23.475 38.5C23.475 38.5 12.7 38.475 11.4 37.225C10.125 35.975 10.125 29.75 10.125 29.7C10.125 29.675 10.125 23.45 11.4 22.175C12.675 20.925 23.475 20.9 23.475 20.9C23.475 20.9 34.25 20.925 35.55 22.175C36.825 23.425 36.85 29.65 36.85 29.7C36.85 29.7 36.85 35.95 35.55 37.225Z" fill="white"/>
</svg>
